<?xml version="1.0" encoding="UTF-8" standalone="no"?>
<!DOCTYPE svg PUBLIC "-//W3C//DTD SVG 1.1//EN" "http://www.w3.org/Graphics/SVG/1.1/DTD/svg11.dtd">
<svg version="1.1" xmlns="http://www.w3.org/2000/svg" xmlns:xlink="http://www.w3.org/1999/xlink" preserveAspectRatio="xMidYMid meet" viewBox="0 0 200 200" width="200" height="200"><defs><path d="" id="b5Fyy42Zhn"></path><path d="" id="cc9yElwJG"></path><path d="" id="bSG6OeZPK"></path><path d="M195.79 100C195.79 152.87 152.87 195.79 100 195.79C47.13 195.79 4.21 152.87 4.21 100C4.21 47.13 47.13 4.21 100 4.21C152.87 4.21 195.79 47.13 195.79 100Z" id="h3l8IEN2nl"></path><path d="" id="c2bgTgG6wz"></path><path d="M46.67 58L44 60L41.33 63L39.67 66.33L39.67 73L39.67 131.67L41.33 135.67L44 139.33L50.33 142.33L149.67 142.33L155 139.33L158 135.67L160 131.67L160 73L160 65.33L158 62L155 59L149.67 57L50.33 57L46.67 58Z" id="a6Ga9PIEZ7"></path><path d="M102 73.33L41.33 73.33" id="dS2wD4RCL"></path><path d="M160 73.33L140.67 73.33" id="h6Mpfksqhj"></path><path d="M107 68L104.33 71.67L104.33 78.67L99.83 82.67L99.83 86.33L101 89.67L104.33 92.67L104.33 96L104.33 99.67L108 102.67L111 102.67L114.67 104L118.33 106.67L121.67 108.33L123.67 107.44L126.67 105.33L129.33 102.67L132.67 104L135.67 102.67L138.67 100L138.67 97L138.67 92.67L141.33 90.67L143 87.67L143 84L141.33 81L138.67 77.67L138.67 73.33L137 69.67L132.67 68L128 68L125.33 64L121.67 62.67L118.33 64L114.67 68L107 68Z" id="a1CRCaFDs6"></path><path d="M114.67 104L121.42 108.33L127.67 104L130.67 132.33L127.67 134L118.33 126.33L106.67 134.67L104.67 131L108.67 102.67L114.67 104Z" id="apHkkZu0O"></path><path d="" id="a2G52pz2aM"></path><path d="M111.67 137.67L114.33 137.67L121.42 129.67L117.67 127.33L110 132.67L111.67 137.67Z" id="b2UpxWYLgy"></path><path d="M129.67 102.67L127 104.33L129.67 127.33L131.67 133.33L134.67 134.67L136.33 132.5L131.67 104.33L129.67 102.67Z" id="a7Wfryg95T"></path><path d="M58.33 64.83C58.33 66.58 56.91 68 55.17 68C53.42 68 52 66.58 52 64.83C52 63.09 53.42 61.67 55.17 61.67C56.91 61.67 58.33 63.09 58.33 64.83Z" id="krmqbh5tU"></path><path d="M68.58 65.08C68.58 66.83 67.16 68.25 65.42 68.25C63.67 68.25 62.25 66.83 62.25 65.08C62.25 63.34 63.67 61.92 65.42 61.92C67.16 61.92 68.58 63.34 68.58 65.08Z" id="d3flVWrJ9"></path><path d="M78.83 65.33C78.83 67.08 77.41 68.5 75.67 68.5C73.92 68.5 72.5 67.08 72.5 65.33C72.5 63.59 73.92 62.17 75.67 62.17C77.41 62.17 78.83 63.59 78.83 65.33Z" id="aMoBYYzge"></path><path d="M132.95 85.67C132.95 92.11 127.58 97.33 120.97 97.33C114.37 97.33 109 92.11 109 85.67C109 79.23 114.37 74 120.97 74C127.58 74 132.95 79.23 132.95 85.67Z" id="bqDqktO6Z"></path></defs><g><g><g><g><use xlink:href="#b5Fyy42Zhn" opacity="1" fill-opacity="0" stroke="#7510f7" stroke-width="1" stroke-opacity="1"></use></g></g><g><g><use xlink:href="#cc9yElwJG" opacity="1" fill-opacity="0" stroke="#000000" stroke-width="1" stroke-opacity="1"></use></g></g><g><g><use xlink:href="#bSG6OeZPK" opacity="1" fill-opacity="0" stroke="#7510f7" stroke-width="1" stroke-opacity="1"></use></g></g><g><use xlink:href="#h3l8IEN2nl" opacity="1" fill="#7510f7" fill-opacity="1"></use></g><g><g><use xlink:href="#c2bgTgG6wz" opacity="1" fill-opacity="0" stroke="#000000" stroke-width="2" stroke-opacity="1"></use></g></g><g><g><use xlink:href="#a6Ga9PIEZ7" opacity="1" fill-opacity="0" stroke="#ffffff" stroke-width="3" stroke-opacity="1"></use></g></g><g><g><use xlink:href="#dS2wD4RCL" opacity="1" fill-opacity="0" stroke="#ffffff" stroke-width="3" stroke-opacity="1"></use></g></g><g><g><use xlink:href="#h6Mpfksqhj" opacity="1" fill-opacity="0" stroke="#ffffff" stroke-width="3" stroke-opacity="1"></use></g></g><g><g><use xlink:href="#a1CRCaFDs6" opacity="1" fill-opacity="0" stroke="#ffffff" stroke-width="3" stroke-opacity="1"></use></g></g><g><g><use xlink:href="#apHkkZu0O" opacity="1" fill-opacity="0" stroke="#ffffff" stroke-width="3" stroke-opacity="1"></use></g></g><g><g><use xlink:href="#a2G52pz2aM" opacity="1" fill-opacity="0" stroke="#000000" stroke-width="3" stroke-opacity="1"></use></g></g><g><g><use xlink:href="#b2UpxWYLgy" opacity="1" fill-opacity="0" stroke="#ffffff" stroke-width="3" stroke-opacity="1"></use></g></g><g><g><use xlink:href="#a7Wfryg95T" opacity="1" fill-opacity="0" stroke="#ffffff" stroke-width="3" stroke-opacity="1"></use></g></g><g><use xlink:href="#krmqbh5tU" opacity="1" fill="#ffffff" fill-opacity="1"></use></g><g><use xlink:href="#d3flVWrJ9" opacity="1" fill="#ffffff" fill-opacity="1"></use></g><g><use xlink:href="#aMoBYYzge" opacity="1" fill="#ffffff" fill-opacity="1"></use></g><g><g><use xlink:href="#bqDqktO6Z" opacity="1" fill-opacity="0" stroke="#ffffff" stroke-width="3" stroke-opacity="1"></use></g></g></g></g></svg>