<?xml version="1.0" encoding="UTF-8" standalone="no"?>
<!DOCTYPE svg PUBLIC "-//W3C//DTD SVG 1.1//EN" "http://www.w3.org/Graphics/SVG/1.1/DTD/svg11.dtd">
<svg version="1.1" xmlns="http://www.w3.org/2000/svg" xmlns:xlink="http://www.w3.org/1999/xlink" preserveAspectRatio="xMidYMid meet" viewBox="0 0 200 200" width="200" height="200"><defs><path d="" id="a5dS8G2s3g"></path><path d="M195.72 100C195.72 152.87 152.8 195.79 99.93 195.79C47.06 195.79 4.14 152.87 4.14 100C4.14 47.13 47.06 4.21 99.93 4.21C152.8 4.21 195.72 47.13 195.72 100Z" id="a1E4ier5sR"></path><path d="" id="d2zIlOQxig"></path><path d="M56.11 100.64L55.71 162.24L57.71 163.44L59.11 162.04L58.91 105.44L60.31 103.64L61.91 106.04L61.51 162.04L63.51 163.44L64.71 161.24L64.71 105.84L68.11 102.64L71.71 106.04L71.71 162.24L73.91 163.84L75.11 161.64L75.71 105.84L79.91 102.44L83.91 106.04L83.71 162.24L85.71 163.64L87.31 161.64L87.31 105.64L89.91 103.04L91.71 106.04L91.71 162.24L93.71 163.44L94.71 161.64L94.31 100.44L75.31 43.04L72.91 42.84L56.11 100.64Z" id="acaiPpfwE"></path><path d="M129.11 41.84L131.71 47.84L134.71 55.84L137.71 64.04L139.71 71.24L140.91 76.44L140.91 79.04L141.31 83.24L140.91 88.64L140.31 92.64L139.71 96.04L138.11 99.04L136.71 103.34L143.51 162.24L141.31 163.04L140.31 161.44L133.11 103.34L118.91 103.34L111.51 162.24L109.51 163.04L108.51 161.44L116.11 101.74L115.31 99.04L113.51 96.04L112.71 92.64L112.11 88.64L112.11 83.24L112.11 79.64L112.71 76.44L113.51 71.24L115.31 64.04L117.71 55.84L120.71 47.84L123.11 41.84L124.91 38.04L127.11 38.04L129.11 41.84Z" id="e93KVKcUpm"></path><path d="M77.71 60.64L71.51 60.64L74.11 50.44L77.71 60.64Z" id="a3wwSoZkBs"></path><path d="M125.51 44.44L124.11 47.64L123.11 50.44L121.51 55.54L119.11 63.24L117.11 70.04L116.31 75.04L115.51 79.24L114.71 86.64L115.51 91.04L117.11 95.64L119.71 99.64L133.71 99.64L135.11 97.84L136.51 95.64L137.31 91.04L137.31 85.64L137.31 80.24L136.51 75.04L134.51 67.64L132.51 60.64L130.11 53.44L128.31 48.44L127.01 44.44L125.51 44.44Z" id="brtDl517"></path><path d="M60.81 99.34L63.81 102.74L69.01 98.34L73.81 103.34L79.61 98.34L85.81 103.34L89.61 97.94L79.61 64.94L70.41 64.94L60.81 99.34Z" id="caDjzsimh"></path><path d="" id="a2LZKsrluf"></path></defs><g><g><g><g><use xlink:href="#a5dS8G2s3g" opacity="1" fill-opacity="0" stroke="#7510f7" stroke-width="1" stroke-opacity="1"></use></g></g><g><use xlink:href="#a1E4ier5sR" opacity="1" fill="#7510f7" fill-opacity="1"></use></g><g><g><use xlink:href="#d2zIlOQxig" opacity="1" fill-opacity="0" stroke="#000000" stroke-width="1" stroke-opacity="1"></use></g></g><g><use xlink:href="#acaiPpfwE" opacity="1" fill="#ffffff" fill-opacity="1"></use><g><use xlink:href="#acaiPpfwE" opacity="1" fill-opacity="0" stroke="#ffffff" stroke-width="1" stroke-opacity="1"></use></g></g><g><use xlink:href="#e93KVKcUpm" opacity="1" fill="#ffffff" fill-opacity="1"></use><g><use xlink:href="#e93KVKcUpm" opacity="1" fill-opacity="0" stroke="#ffffff" stroke-width="1" stroke-opacity="1"></use></g></g><g><use xlink:href="#a3wwSoZkBs" opacity="1" fill="#7510f7" fill-opacity="1"></use><g><use xlink:href="#a3wwSoZkBs" opacity="1" fill-opacity="0" stroke="#ffffff" stroke-width="1" stroke-opacity="1"></use></g></g><g><use xlink:href="#brtDl517" opacity="1" fill="#7510f7" fill-opacity="1"></use><g><use xlink:href="#brtDl517" opacity="1" fill-opacity="0" stroke="#ffffff" stroke-width="1" stroke-opacity="1"></use></g></g><g><use xlink:href="#caDjzsimh" opacity="1" fill="#7510f7" fill-opacity="1"></use><g><use xlink:href="#caDjzsimh" opacity="1" fill-opacity="0" stroke="#ffffff" stroke-width="1" stroke-opacity="1"></use></g></g><g><g><use xlink:href="#a2LZKsrluf" opacity="1" fill-opacity="0" stroke="#7510f7" stroke-width="1" stroke-opacity="1"></use></g></g></g></g></svg>